<svg width="31" height="31" viewBox="0 0 31 31" fill="none" xmlns="http://www.w3.org/2000/svg">
<g id="Group 105">
<g id="Ellipse 45">
<circle cx="15.5" cy="15.5" r="15.5" fill="url(#paint0_linear_0_32)"/>
<circle cx="15.5" cy="15.5" r="15.25" stroke="#AFB5BF" stroke-opacity="0.45" stroke-width="0.5"/>
</g>
<g id="Group">
<path id="Vector" d="M22.9029 14.5953C22.853 14.53 22.788 14.4912 22.7074 14.4789L21.004 14.2183C20.9109 13.9204 20.7837 13.6164 20.6224 13.3061C20.734 13.151 20.9014 12.9323 21.1248 12.6498C21.3482 12.3675 21.5064 12.1612 21.5995 12.0308C21.6492 11.9626 21.6738 11.8913 21.6738 11.8167C21.6738 11.7299 21.6523 11.6617 21.6087 11.612C21.3854 11.2955 20.8734 10.7681 20.0729 10.0296C19.9987 9.96754 19.921 9.93654 19.8404 9.93654C19.7472 9.93654 19.6728 9.96441 19.6169 10.0202L18.2953 11.0162C18.0408 10.8858 17.7615 10.771 17.4576 10.6718L17.197 8.95917C17.1907 8.87851 17.155 8.81178 17.0899 8.75903C17.0246 8.70621 16.9488 8.67993 16.8618 8.67993H14.7954C14.6154 8.67993 14.5037 8.76675 14.4603 8.94052C14.3796 9.25067 14.2896 9.82777 14.1904 10.6717C13.8987 10.765 13.6163 10.8829 13.3433 11.0256L12.0588 10.0296C11.9781 9.96754 11.8975 9.93654 11.8168 9.93654C11.6803 9.93654 11.3872 10.1584 10.9372 10.6021C10.4873 11.0458 10.1819 11.3793 10.0204 11.6026C9.9645 11.6833 9.93666 11.7547 9.93666 11.8167C9.93666 11.8913 9.96763 11.9657 10.0297 12.0401C10.4454 12.5428 10.7775 12.9709 11.0257 13.3247C10.8705 13.6101 10.7495 13.8956 10.6628 14.181L8.93139 14.4416C8.86315 14.4541 8.80424 14.4944 8.75455 14.5627C8.70477 14.6309 8.67999 14.7024 8.67999 14.7767V16.8431C8.67999 16.9239 8.70477 16.9967 8.75446 17.0618C8.80414 17.127 8.86925 17.166 8.94994 17.1783L10.6534 17.4297C10.7403 17.7337 10.8674 18.0407 11.035 18.3509C10.9234 18.5061 10.7558 18.7248 10.5324 19.0072C10.3091 19.2897 10.1507 19.4959 10.0577 19.6262C10.008 19.6947 9.98322 19.7659 9.98322 19.8404C9.98322 19.9209 10.0049 19.9922 10.0483 20.0543C10.2903 20.3896 10.8023 20.9108 11.5842 21.6182C11.6525 21.6865 11.7301 21.7205 11.8169 21.7205C11.91 21.7205 11.9876 21.6927 12.0496 21.6369L13.3622 20.6408C13.6167 20.7711 13.8959 20.886 14.1999 20.9854L14.4605 22.698C14.4668 22.7785 14.5025 22.8453 14.5676 22.8981C14.6327 22.951 14.7088 22.9771 14.7956 22.9771H16.862C17.0423 22.9771 17.1538 22.8903 17.1974 22.7165C17.2779 22.4063 17.3678 21.8293 17.4671 20.9854C17.7588 20.8922 18.0412 20.7742 18.3142 20.6315L19.5988 21.6369C19.6856 21.6928 19.7664 21.7205 19.8407 21.7205C19.9772 21.7205 20.2688 21.5004 20.7155 21.0596C21.1625 20.6191 21.4696 20.284 21.637 20.0543C21.6928 19.9923 21.7208 19.9209 21.7208 19.8404C21.7208 19.7596 21.6899 19.6819 21.6276 19.6076C21.181 19.0614 20.849 18.6334 20.6317 18.323C20.7558 18.0934 20.8769 17.8111 20.9948 17.476L22.7168 17.2156C22.7911 17.2031 22.8533 17.1627 22.9029 17.0944C22.9525 17.026 22.9772 16.9546 22.9772 16.8802V14.814C22.9773 14.7333 22.9527 14.6605 22.9029 14.5953ZM17.5135 17.5133C17.0483 17.9787 16.4867 18.2115 15.8288 18.2115C15.1709 18.2115 14.6094 17.9787 14.1439 17.5133C13.6786 17.048 13.4459 16.4863 13.4459 15.8286C13.4459 15.1708 13.6785 14.6092 14.1439 14.1437C14.6094 13.6784 15.171 13.4457 15.8288 13.4457C16.4867 13.4457 17.0483 13.6784 17.5135 14.1437C17.9789 14.6092 18.2117 15.1708 18.2117 15.8286C18.2117 16.4863 17.9789 17.048 17.5135 17.5133Z" fill="url(#paint1_linear_0_32)"/>
</g>
</g>
<defs>
<linearGradient id="paint0_linear_0_32" x1="19.7923" y1="11.2077" x2="9.06154" y2="31" gradientUnits="userSpaceOnUse">
<stop stop-color="#FFFDFF"/>
<stop offset="1" stop-color="#F5F5F5"/>
</linearGradient>
<linearGradient id="paint1_linear_0_32" x1="15.8286" y1="8.67993" x2="15.8286" y2="22.9771" gradientUnits="userSpaceOnUse">
<stop stop-color="#A3B7C7"/>
<stop offset="1" stop-color="#738A9C"/>
</linearGradient>
</defs>
</svg>
