<svg width="14" height="13" viewBox="0 0 14 13" fill="none" xmlns="http://www.w3.org/2000/svg">
<path id="Vector" d="M13.4989 10.36L8.34283 0.863095C8.20632 0.612286 8.00471 0.402922 7.75924 0.257046C7.51376 0.11117 7.23349 0.0341797 6.94794 0.0341797C6.66239 0.0341797 6.38212 0.11117 6.13664 0.257046C5.89116 0.402922 5.68956 0.612286 5.55305 0.863095L0.391693 10.36C0.2566 10.6025 0.187422 10.8761 0.191054 11.1537C0.194686 11.4312 0.271001 11.703 0.412392 11.9419C0.553784 12.1807 0.755312 12.3784 0.996891 12.5151C1.23847 12.6518 1.51166 12.7228 1.78923 12.721H12.1014C12.3766 12.7212 12.6473 12.6499 12.8867 12.514C13.1261 12.3781 13.3261 12.1824 13.467 11.9459C13.608 11.7094 13.685 11.4403 13.6906 11.1651C13.6962 10.8898 13.6301 10.6179 13.4989 10.3759V10.36ZM6.15653 3.58406C6.15653 3.37346 6.24019 3.17149 6.3891 3.02257C6.53802 2.87366 6.73999 2.79 6.95058 2.79C7.16118 2.79 7.36315 2.87366 7.51207 3.02257C7.66098 3.17149 7.74464 3.37346 7.74464 3.58406V7.23141C7.74464 7.44201 7.66098 7.64398 7.51207 7.7929C7.36315 7.94181 7.16118 8.02547 6.95058 8.02547C6.73999 8.02547 6.53802 7.94181 6.3891 7.7929C6.24019 7.64398 6.15653 7.44201 6.15653 7.23141V3.58406ZM6.97176 10.7358C6.79168 10.7358 6.61564 10.6824 6.4659 10.5824C6.31617 10.4823 6.19947 10.3401 6.13055 10.1738C6.06164 10.0074 6.04361 9.82432 6.07874 9.64769C6.11387 9.47107 6.20059 9.30883 6.32793 9.18149C6.45527 9.05416 6.6175 8.96744 6.79413 8.93231C6.97075 8.89717 7.15382 8.9152 7.3202 8.98412C7.48657 9.05303 7.62878 9.16974 7.72883 9.31947C7.82888 9.4692 7.88228 9.64524 7.88228 9.82533C7.88228 10.0668 7.78635 10.2984 7.61559 10.4692C7.44484 10.6399 7.21324 10.7358 6.97176 10.7358Z" fill="white"/>
</svg>
