<svg width="35" height="35" viewBox="0 0 35 35" fill="none" xmlns="http://www.w3.org/2000/svg">
<g id="Close">
<g id="Ellipse 52" filter="url(#filter0_b_8_298)">
<circle cx="17.5" cy="17.5" r="17.5" fill="black" fill-opacity="0.6"/>
</g>
<path id="Vector" d="M19.4004 17.9955L23.7345 13.6715C23.9243 13.4817 24.0309 13.2243 24.0309 12.9559C24.0309 12.6875 23.9243 12.4301 23.7345 12.2403C23.5447 12.0505 23.2872 11.9438 23.0188 11.9438C22.7504 11.9438 22.493 12.0505 22.3032 12.2403L17.9792 16.5744L13.6552 12.2403C13.4654 12.0505 13.208 11.9438 12.9396 11.9438C12.6711 11.9438 12.4137 12.0505 12.2239 12.2403C12.0341 12.4301 11.9275 12.6875 11.9275 12.9559C11.9275 13.2243 12.0341 13.4817 12.2239 13.6715L16.558 17.9955L12.2239 22.3196C12.1295 22.4133 12.0545 22.5247 12.0033 22.6476C11.9521 22.7704 11.9258 22.9021 11.9258 23.0352C11.9258 23.1682 11.9521 23.3 12.0033 23.4228C12.0545 23.5456 12.1295 23.6571 12.2239 23.7508C12.3176 23.8453 12.4291 23.9203 12.5519 23.9714C12.6748 24.0226 12.8065 24.049 12.9396 24.049C13.0726 24.049 13.2044 24.0226 13.3272 23.9714C13.45 23.9203 13.5615 23.8453 13.6552 23.7508L17.9792 19.4167L22.3032 23.7508C22.3969 23.8453 22.5084 23.9203 22.6312 23.9714C22.754 24.0226 22.8858 24.049 23.0188 24.049C23.1519 24.049 23.2836 24.0226 23.4065 23.9714C23.5293 23.9203 23.6408 23.8453 23.7345 23.7508C23.8289 23.6571 23.9039 23.5456 23.9551 23.4228C24.0063 23.3 24.0326 23.1682 24.0326 23.0352C24.0326 22.9021 24.0063 22.7704 23.9551 22.6476C23.9039 22.5247 23.8289 22.4133 23.7345 22.3196L19.4004 17.9955Z" fill="white"/>
</g>
<defs>
<filter id="filter0_b_8_298" x="-4" y="-4" width="43" height="43" filterUnits="userSpaceOnUse" color-interpolation-filters="sRGB">
<feFlood flood-opacity="0" result="BackgroundImageFix"/>
<feGaussianBlur in="BackgroundImageFix" stdDeviation="2"/>
<feComposite in2="SourceAlpha" operator="in" result="effect1_backgroundBlur_8_298"/>
<feBlend mode="normal" in="SourceGraphic" in2="effect1_backgroundBlur_8_298" result="shape"/>
</filter>
</defs>
</svg>
